<svg xmlns="http://www.w3.org/2000/svg" xmlns:xlink="http://www.w3.org/1999/xlink" width="1500" height="138"><svg xml:space="preserve" width="1500" height="138" data-version="2" data-id="lg_2zKJQ7sUH0RiTvVcfK" viewBox="0 0 558 138"><rect width="100%" height="100%" fill="transparent"/><path d="M66.59 133.69H6.15q-.73 0-.73-.91L5.6 4.31q0-.73.73-.73h60.08q.73 0 .73.91V25.4q0 .73-.73.73H28.06v29.22h38.35q.73 0 .73.73l.18 21.18q0 .73-.73.73H28.06v32.69h38.53q.73 0 .73.92v21.36q0 .73-.73.73"/><rect width="61.9" height="130.11" x="-30.95" y="-65.06" fill="none" rx="0" ry="0" transform="translate(36.87 69.14)"/><path d="M110.96 133.69H89.51q-.64 0-.64-.73l.18-53.14L64.03 4.31q-.18-.73.55-.73H85.4q.91 0 1.09.73l13.79 50.31 14.06-50.31q.18-.73.92-.73h21q.73 0 .54.73l-25.29 74.78.18 53.87q0 .73-.73.73"/><rect width="72.98" height="130.11" x="-36.49" y="-65.06" fill="none" rx="0" ry="0" transform="translate(100.92 69.14)"/><path d="M196.15 133.69H135.7q-.73 0-.73-.91l.18-128.47q0-.73.73-.73h60.09q.73 0 .73.91V25.4q0 .73-.73.73h-38.35v29.22h38.35q.73 0 .73.73l.18 21.18q0 .73-.73.73h-38.53v32.69h38.53q.73 0 .73.92v21.36q0 .73-.73.73"/><rect width="61.91" height="130.11" x="-30.95" y="-65.06" fill="none" rx="0" ry="0" transform="translate(166.43 69.14)"/><path d="M233.3 135.52q-9.95 0-18.35-5.12-8.31-5.11-13.28-13.65-4.98-8.53-4.98-18.76v-8.58q0-1.01.91-1.01h21q.73 0 .73 1.01v8.58q0 6.12 4.11 10.55 4.11 4.43 9.86 4.43 5.85 0 9.96-4.52 4.11-4.52 4.11-10.46 0-6.85-8.95-11.96-1.46-.91-3.79-2.24-2.33-1.32-5.53-3.06-3.19-1.73-6.2-3.42-3.02-1.69-5.85-3.24-10.23-6.03-15.2-15.11-4.98-9.09-4.98-20.41 0-10.41 5.12-18.81 5.11-8.31 13.37-13.2 8.27-4.88 17.94-4.88 9.96 0 18.27 4.93 8.31 5.02 13.28 13.33 4.98 8.31 4.98 18.63v15.34q0 .73-.73.73h-21q-.73 0-.73-.73l-.19-15.34q0-6.58-4.11-10.68-4.1-4.11-9.77-4.11-5.75 0-9.86 4.38-4.11 4.38-4.11 10.41 0 6.12 2.61 10.23 2.6 4.1 9.54 7.85.73.36 3.38 1.82 2.64 1.46 5.89 3.25 3.24 1.78 5.89 3.19 2.64 1.42 3.19 1.69 9.31 5.2 14.75 12.78 5.43 7.58 5.43 18.63 0 10.68-4.93 19.18-5.02 8.49-13.33 13.42t-18.45 4.93"/><rect width="73.32" height="133.86" x="-36.66" y="-66.93" fill="none" rx="0" ry="0" transform="translate(233.85 69.09)"/><path d="M305.43 135.52q-10.13 0-18.53-5.12-8.31-5.11-13.2-13.74-4.88-8.63-4.88-19.22L269 39.1q0-10.41 4.75-18.81 4.75-8.49 13.1-13.65t18.58-5.16q10.41 0 18.54 5.02 8.21 5.02 13.1 13.56 4.88 8.54 4.88 19.04v8.58q0 .73-.73.73h-21q-.73 0-.73-.73V39.1q0-6.21-4.01-10.69-4.02-4.47-10.05-4.47-6.66 0-10.23 4.56-3.56 4.57-3.56 10.6v58.34q0 6.85 4.02 11.19t9.77 4.34q6.03 0 10.05-4.8 4.01-4.79 4.01-10.73v-8.67q0-.73.73-.73h21.19q.73 0 .73.73v8.67q0 10.5-4.93 19.18-5.03 8.58-13.24 13.74-8.22 5.16-18.54 5.16"/><rect width="73.32" height="134.04" x="-36.66" y="-67.02" fill="none" rx="0" ry="0" transform="translate(305.98 69)"/><path d="m337.38 132.78 23.2-128.47q.18-.73.91-.73h27.12q.73 0 .91.73l22.28 128.47q.09.91-.73.91h-20.73q-.91 0-1-.91l-2.01-13.7h-25.48l-2.01 13.7q-.09.91-.91.91h-20.82q-.73 0-.73-.91m37.44-93.14-.82 6.94-8.4 52.51h17.99l-7.67-52.51z"/><rect width="74.46" height="130.11" x="-37.23" y="-65.06" fill="none" rx="0" ry="0" transform="translate(375.11 69.14)"/><path d="M433.43 133.69h-21.18q-.73 0-.73-.91l.36-128.47q0-.73.73-.73h37.81q10.13 0 18.62 4.93 8.5 4.93 13.56 13.24 5.07 8.31 5.07 18.81 0 6.85-2.1 12.42t-4.88 9.4q-2.79 3.84-5.07 5.66 10.13 11.23 10.13 26.39l.19 38.35q0 .91-.92.91h-21.18q-.73 0-.73-.55V94.43q0-6.76-4.75-11.69t-11.69-4.93h-12.32l-.19 54.97q0 .91-.73.91m16.99-107.74h-16.07v29.4h16.07q5.75 0 10.27-4.29t4.52-10.5q0-5.94-4.38-10.27-4.39-4.34-10.41-4.34"/><rect width="76.15" height="130.11" x="-38.08" y="-65.06" fill="none" rx="0" ry="0" transform="translate(450.1 69.14)"/><path d="M550.85 133.69H490.4q-.73 0-.73-.91l.19-128.47q0-.73.73-.73h60.08q.73 0 .73.91V25.4q0 .73-.73.73h-38.35v29.22h38.35q.73 0 .73.73l.18 21.18q0 .73-.73.73h-38.53v32.69h38.53q.73 0 .73.92v21.36q0 .73-.73.73"/><rect width="61.91" height="130.11" x="-30.95" y="-65.06" fill="none" rx="0" ry="0" transform="translate(521.13 69.14)"/></svg></svg>